<svg width="1909" height="1122" viewBox="0 0 1909 1122" fill="none" xmlns="http://www.w3.org/2000/svg">
<circle cx="112.5" cy="112.5" r="175.5" fill="#EAE0FF" fill-opacity="0.2"/>
<circle cx="1636" cy="923" r="199" fill="#EAE0FF" fill-opacity="0.2"/>
<circle cx="1808" cy="621" r="101" fill="#EAE0FF" fill-opacity="0.2"/>
<circle cx="1144.5" cy="522.5" r="2.5" fill="#EAE0FF" fill-opacity="0.5"/>
<circle cx="1151.5" cy="522.5" r="2.5" fill="#EAE0FF" fill-opacity="0.5"/>
<circle cx="1158.5" cy="522.5" r="2.5" fill="#EAE0FF" fill-opacity="0.5"/>
<circle cx="1165.5" cy="522.5" r="2.5" fill="#EAE0FF" fill-opacity="0.5"/>
<circle cx="1144.5" cy="529.5" r="2.5" fill="#EAE0FF" fill-opacity="0.5"/>
<circle cx="1151.5" cy="529.5" r="2.5" fill="#EAE0FF" fill-opacity="0.5"/>
<circle cx="1158.5" cy="529.5" r="2.5" fill="#EAE0FF" fill-opacity="0.5"/>
<circle cx="1165.5" cy="529.5" r="2.5" fill="#EAE0FF" fill-opacity="0.5"/>
<circle cx="1144.5" cy="536.5" r="2.5" fill="#EAE0FF" fill-opacity="0.5"/>
<circle cx="1151.5" cy="536.5" r="2.5" fill="#EAE0FF" fill-opacity="0.5"/>
<circle cx="1158.5" cy="536.5" r="2.5" fill="#EAE0FF" fill-opacity="0.5"/>
<circle cx="1165.5" cy="536.5" r="2.5" fill="#EAE0FF" fill-opacity="0.5"/>
<circle cx="1144.5" cy="543.5" r="2.5" fill="#EAE0FF" fill-opacity="0.5"/>
<circle cx="1151.5" cy="543.5" r="2.5" fill="#EAE0FF" fill-opacity="0.5"/>
<circle cx="1158.5" cy="543.5" r="2.5" fill="#EAE0FF" fill-opacity="0.5"/>
<circle cx="1165.5" cy="543.5" r="2.5" fill="#EAE0FF" fill-opacity="0.5"/>
<circle cx="1172.5" cy="522.5" r="2.5" fill="#EAE0FF" fill-opacity="0.5"/>
<circle cx="1179.5" cy="522.5" r="2.5" fill="#EAE0FF" fill-opacity="0.5"/>
<circle cx="1186.5" cy="522.5" r="2.5" fill="#EAE0FF" fill-opacity="0.5"/>
<circle cx="1193.5" cy="522.5" r="2.5" fill="#EAE0FF" fill-opacity="0.5"/>
<circle cx="1172.5" cy="529.5" r="2.5" fill="#EAE0FF" fill-opacity="0.5"/>
<circle cx="1179.5" cy="529.5" r="2.5" fill="#EAE0FF" fill-opacity="0.5"/>
<circle cx="1186.5" cy="529.5" r="2.5" fill="#EAE0FF" fill-opacity="0.5"/>
<circle cx="1193.5" cy="529.5" r="2.5" fill="#EAE0FF" fill-opacity="0.5"/>
<circle cx="1172.5" cy="536.5" r="2.5" fill="#EAE0FF" fill-opacity="0.5"/>
<circle cx="1179.5" cy="536.5" r="2.5" fill="#EAE0FF" fill-opacity="0.5"/>
<circle cx="1186.5" cy="536.5" r="2.5" fill="#EAE0FF" fill-opacity="0.5"/>
<circle cx="1193.5" cy="536.5" r="2.5" fill="#EAE0FF" fill-opacity="0.5"/>
<circle cx="1172.5" cy="543.5" r="2.5" fill="#EAE0FF" fill-opacity="0.5"/>
<circle cx="1179.5" cy="543.5" r="2.5" fill="#EAE0FF" fill-opacity="0.5"/>
<circle cx="1186.5" cy="543.5" r="2.5" fill="#EAE0FF" fill-opacity="0.5"/>
<circle cx="1193.5" cy="543.5" r="2.5" fill="#EAE0FF" fill-opacity="0.5"/>
<circle cx="1172.5" cy="550.5" r="2.5" fill="#EAE0FF" fill-opacity="0.5"/>
<circle cx="1179.5" cy="550.5" r="2.5" fill="#EAE0FF" fill-opacity="0.5"/>
<circle cx="1186.5" cy="550.5" r="2.5" fill="#EAE0FF" fill-opacity="0.5"/>
<circle cx="1193.5" cy="550.5" r="2.5" fill="#EAE0FF" fill-opacity="0.5"/>
<circle cx="1172.5" cy="557.5" r="2.5" fill="#EAE0FF" fill-opacity="0.5"/>
<circle cx="1179.5" cy="557.5" r="2.5" fill="#EAE0FF" fill-opacity="0.5"/>
<circle cx="1186.5" cy="557.5" r="2.5" fill="#EAE0FF" fill-opacity="0.5"/>
<circle cx="1193.5" cy="557.5" r="2.5" fill="#EAE0FF" fill-opacity="0.5"/>
<circle cx="1172.5" cy="564.5" r="2.5" fill="#EAE0FF" fill-opacity="0.5"/>
<circle cx="1179.5" cy="564.5" r="2.5" fill="#EAE0FF" fill-opacity="0.5"/>
<circle cx="1186.5" cy="564.5" r="2.5" fill="#EAE0FF" fill-opacity="0.5"/>
<circle cx="1193.5" cy="564.5" r="2.5" fill="#EAE0FF" fill-opacity="0.5"/>
<circle cx="1172.5" cy="571.5" r="2.5" fill="#EAE0FF" fill-opacity="0.5"/>
<circle cx="1179.5" cy="571.5" r="2.5" fill="#EAE0FF" fill-opacity="0.5"/>
<circle cx="1186.5" cy="571.5" r="2.5" fill="#EAE0FF" fill-opacity="0.5"/>
<circle cx="1193.5" cy="571.5" r="2.5" fill="#EAE0FF" fill-opacity="0.5"/>
<circle cx="1144.5" cy="550.5" r="2.5" fill="#EAE0FF" fill-opacity="0.5"/>
<circle cx="1151.5" cy="550.5" r="2.5" fill="#EAE0FF" fill-opacity="0.5"/>
<circle cx="1158.5" cy="550.5" r="2.5" fill="#EAE0FF" fill-opacity="0.5"/>
<circle cx="1165.5" cy="550.5" r="2.5" fill="#EAE0FF" fill-opacity="0.5"/>
<circle cx="1144.5" cy="557.5" r="2.5" fill="#EAE0FF" fill-opacity="0.5"/>
<circle cx="1151.5" cy="557.5" r="2.5" fill="#EAE0FF" fill-opacity="0.5"/>
<circle cx="1158.5" cy="557.5" r="2.5" fill="#EAE0FF" fill-opacity="0.5"/>
<circle cx="1165.5" cy="557.5" r="2.5" fill="#EAE0FF" fill-opacity="0.5"/>
<circle cx="1144.5" cy="564.5" r="2.5" fill="#EAE0FF" fill-opacity="0.5"/>
<circle cx="1151.5" cy="564.5" r="2.5" fill="#EAE0FF" fill-opacity="0.5"/>
<circle cx="1158.5" cy="564.5" r="2.5" fill="#EAE0FF" fill-opacity="0.5"/>
<circle cx="1165.5" cy="564.5" r="2.5" fill="#EAE0FF" fill-opacity="0.5"/>
<circle cx="1144.5" cy="571.5" r="2.5" fill="#EAE0FF" fill-opacity="0.5"/>
<circle cx="1151.5" cy="571.5" r="2.5" fill="#EAE0FF" fill-opacity="0.5"/>
<circle cx="1158.5" cy="571.5" r="2.5" fill="#EAE0FF" fill-opacity="0.5"/>
<circle cx="1165.5" cy="571.5" r="2.5" fill="#EAE0FF" fill-opacity="0.5"/>
<circle cx="1200.5" cy="522.5" r="2.5" fill="#EAE0FF" fill-opacity="0.5"/>
<circle cx="1207.5" cy="522.5" r="2.5" fill="#EAE0FF" fill-opacity="0.5"/>
<circle cx="1214.5" cy="522.5" r="2.5" fill="#EAE0FF" fill-opacity="0.5"/>
<circle cx="1221.5" cy="522.5" r="2.5" fill="#EAE0FF" fill-opacity="0.5"/>
<circle cx="1200.5" cy="529.5" r="2.5" fill="#EAE0FF" fill-opacity="0.5"/>
<circle cx="1207.5" cy="529.5" r="2.5" fill="#EAE0FF" fill-opacity="0.5"/>
<circle cx="1214.5" cy="529.5" r="2.5" fill="#EAE0FF" fill-opacity="0.5"/>
<circle cx="1221.5" cy="529.5" r="2.5" fill="#EAE0FF" fill-opacity="0.5"/>
<circle cx="1200.5" cy="536.5" r="2.5" fill="#EAE0FF" fill-opacity="0.5"/>
<circle cx="1207.5" cy="536.5" r="2.5" fill="#EAE0FF" fill-opacity="0.5"/>
<circle cx="1214.5" cy="536.5" r="2.5" fill="#EAE0FF" fill-opacity="0.5"/>
<circle cx="1221.5" cy="536.5" r="2.5" fill="#EAE0FF" fill-opacity="0.5"/>
<circle cx="1200.5" cy="543.5" r="2.5" fill="#EAE0FF" fill-opacity="0.5"/>
<circle cx="1207.5" cy="543.5" r="2.5" fill="#EAE0FF" fill-opacity="0.5"/>
<circle cx="1214.5" cy="543.5" r="2.5" fill="#EAE0FF" fill-opacity="0.5"/>
<circle cx="1221.5" cy="543.5" r="2.5" fill="#EAE0FF" fill-opacity="0.5"/>
<circle cx="1228.5" cy="522.5" r="2.5" fill="#EAE0FF" fill-opacity="0.5"/>
<circle cx="1235.5" cy="522.5" r="2.5" fill="#EAE0FF" fill-opacity="0.5"/>
<circle cx="1242.5" cy="522.5" r="2.5" fill="#EAE0FF" fill-opacity="0.5"/>
<circle cx="1249.5" cy="522.5" r="2.5" fill="#EAE0FF" fill-opacity="0.5"/>
<circle cx="1228.5" cy="529.5" r="2.5" fill="#EAE0FF" fill-opacity="0.5"/>
<circle cx="1235.5" cy="529.5" r="2.5" fill="#EAE0FF" fill-opacity="0.5"/>
<circle cx="1242.5" cy="529.5" r="2.5" fill="#EAE0FF" fill-opacity="0.5"/>
<circle cx="1249.5" cy="529.5" r="2.5" fill="#EAE0FF" fill-opacity="0.5"/>
<circle cx="1228.5" cy="536.5" r="2.5" fill="#EAE0FF" fill-opacity="0.5"/>
<circle cx="1235.5" cy="536.5" r="2.5" fill="#EAE0FF" fill-opacity="0.5"/>
<circle cx="1242.5" cy="536.5" r="2.5" fill="#EAE0FF" fill-opacity="0.5"/>
<circle cx="1249.5" cy="536.5" r="2.5" fill="#EAE0FF" fill-opacity="0.5"/>
<circle cx="1228.5" cy="543.5" r="2.5" fill="#EAE0FF" fill-opacity="0.5"/>
<circle cx="1235.5" cy="543.5" r="2.5" fill="#EAE0FF" fill-opacity="0.5"/>
<circle cx="1242.5" cy="543.5" r="2.5" fill="#EAE0FF" fill-opacity="0.5"/>
<circle cx="1249.5" cy="543.5" r="2.5" fill="#EAE0FF" fill-opacity="0.5"/>
<circle cx="1228.5" cy="550.5" r="2.5" fill="#EAE0FF" fill-opacity="0.5"/>
<circle cx="1235.5" cy="550.5" r="2.5" fill="#EAE0FF" fill-opacity="0.5"/>
<circle cx="1242.5" cy="550.5" r="2.5" fill="#EAE0FF" fill-opacity="0.5"/>
<circle cx="1249.5" cy="550.5" r="2.5" fill="#EAE0FF" fill-opacity="0.5"/>
<circle cx="1228.5" cy="557.5" r="2.5" fill="#EAE0FF" fill-opacity="0.5"/>
<circle cx="1235.5" cy="557.5" r="2.5" fill="#EAE0FF" fill-opacity="0.5"/>
<circle cx="1242.5" cy="557.5" r="2.5" fill="#EAE0FF" fill-opacity="0.5"/>
<circle cx="1249.5" cy="557.5" r="2.5" fill="#EAE0FF" fill-opacity="0.5"/>
<circle cx="1228.5" cy="564.5" r="2.5" fill="#EAE0FF" fill-opacity="0.5"/>
<circle cx="1235.5" cy="564.5" r="2.5" fill="#EAE0FF" fill-opacity="0.5"/>
<circle cx="1242.5" cy="564.5" r="2.5" fill="#EAE0FF" fill-opacity="0.5"/>
<circle cx="1249.5" cy="564.5" r="2.5" fill="#EAE0FF" fill-opacity="0.5"/>
<circle cx="1228.5" cy="571.5" r="2.5" fill="#EAE0FF" fill-opacity="0.5"/>
<circle cx="1235.5" cy="571.5" r="2.5" fill="#EAE0FF" fill-opacity="0.5"/>
<circle cx="1242.5" cy="571.5" r="2.5" fill="#EAE0FF" fill-opacity="0.5"/>
<circle cx="1249.5" cy="571.5" r="2.5" fill="#EAE0FF" fill-opacity="0.5"/>
<circle cx="1200.5" cy="550.5" r="2.5" fill="#EAE0FF" fill-opacity="0.5"/>
<circle cx="1207.5" cy="550.5" r="2.5" fill="#EAE0FF" fill-opacity="0.5"/>
<circle cx="1214.5" cy="550.5" r="2.5" fill="#EAE0FF" fill-opacity="0.5"/>
<circle cx="1221.5" cy="550.5" r="2.5" fill="#EAE0FF" fill-opacity="0.5"/>
<circle cx="1200.5" cy="557.5" r="2.5" fill="#EAE0FF" fill-opacity="0.5"/>
<circle cx="1207.5" cy="557.5" r="2.5" fill="#EAE0FF" fill-opacity="0.5"/>
<circle cx="1214.5" cy="557.5" r="2.5" fill="#EAE0FF" fill-opacity="0.5"/>
<circle cx="1221.5" cy="557.5" r="2.5" fill="#EAE0FF" fill-opacity="0.5"/>
<circle cx="1200.5" cy="564.5" r="2.5" fill="#EAE0FF" fill-opacity="0.5"/>
<circle cx="1207.5" cy="564.5" r="2.5" fill="#EAE0FF" fill-opacity="0.5"/>
<circle cx="1214.5" cy="564.5" r="2.5" fill="#EAE0FF" fill-opacity="0.5"/>
<circle cx="1221.5" cy="564.5" r="2.5" fill="#EAE0FF" fill-opacity="0.5"/>
<circle cx="1200.5" cy="571.5" r="2.5" fill="#EAE0FF" fill-opacity="0.5"/>
<circle cx="1207.5" cy="571.5" r="2.5" fill="#EAE0FF" fill-opacity="0.5"/>
<circle cx="1214.5" cy="571.5" r="2.5" fill="#EAE0FF" fill-opacity="0.5"/>
<circle cx="1221.5" cy="571.5" r="2.5" fill="#EAE0FF" fill-opacity="0.5"/>
<circle cx="1200.5" cy="578.5" r="2.5" fill="#EAE0FF" fill-opacity="0.5"/>
<circle cx="1207.5" cy="578.5" r="2.5" fill="#EAE0FF" fill-opacity="0.5"/>
<circle cx="1214.5" cy="578.5" r="2.5" fill="#EAE0FF" fill-opacity="0.5"/>
<circle cx="1221.5" cy="578.5" r="2.5" fill="#EAE0FF" fill-opacity="0.5"/>
<circle cx="1200.5" cy="585.5" r="2.5" fill="#EAE0FF" fill-opacity="0.5"/>
<circle cx="1207.5" cy="585.5" r="2.5" fill="#EAE0FF" fill-opacity="0.5"/>
<circle cx="1214.5" cy="585.5" r="2.5" fill="#EAE0FF" fill-opacity="0.5"/>
<circle cx="1221.5" cy="585.5" r="2.5" fill="#EAE0FF" fill-opacity="0.5"/>
<circle cx="1200.5" cy="592.5" r="2.5" fill="#EAE0FF" fill-opacity="0.5"/>
<circle cx="1207.5" cy="592.5" r="2.5" fill="#EAE0FF" fill-opacity="0.5"/>
<circle cx="1214.5" cy="592.5" r="2.5" fill="#EAE0FF" fill-opacity="0.5"/>
<circle cx="1221.5" cy="592.5" r="2.5" fill="#EAE0FF" fill-opacity="0.5"/>
<circle cx="1200.5" cy="599.5" r="2.5" fill="#EAE0FF" fill-opacity="0.5"/>
<circle cx="1207.5" cy="599.5" r="2.5" fill="#EAE0FF" fill-opacity="0.5"/>
<circle cx="1214.5" cy="599.5" r="2.5" fill="#EAE0FF" fill-opacity="0.5"/>
<circle cx="1221.5" cy="599.5" r="2.5" fill="#EAE0FF" fill-opacity="0.5"/>
<circle cx="1228.5" cy="578.5" r="2.5" fill="#EAE0FF" fill-opacity="0.5"/>
<circle cx="1235.5" cy="578.5" r="2.5" fill="#EAE0FF" fill-opacity="0.5"/>
<circle cx="1242.5" cy="578.5" r="2.5" fill="#EAE0FF" fill-opacity="0.5"/>
<circle cx="1249.5" cy="578.5" r="2.5" fill="#EAE0FF" fill-opacity="0.5"/>
<circle cx="1228.5" cy="585.5" r="2.5" fill="#EAE0FF" fill-opacity="0.5"/>
<circle cx="1235.5" cy="585.5" r="2.5" fill="#EAE0FF" fill-opacity="0.5"/>
<circle cx="1242.5" cy="585.5" r="2.5" fill="#EAE0FF" fill-opacity="0.5"/>
<circle cx="1249.5" cy="585.5" r="2.5" fill="#EAE0FF" fill-opacity="0.5"/>
<circle cx="1228.5" cy="592.5" r="2.5" fill="#EAE0FF" fill-opacity="0.5"/>
<circle cx="1235.5" cy="592.5" r="2.5" fill="#EAE0FF" fill-opacity="0.5"/>
<circle cx="1242.5" cy="592.5" r="2.5" fill="#EAE0FF" fill-opacity="0.5"/>
<circle cx="1249.5" cy="592.5" r="2.5" fill="#EAE0FF" fill-opacity="0.5"/>
<circle cx="1228.5" cy="599.5" r="2.5" fill="#EAE0FF" fill-opacity="0.5"/>
<circle cx="1235.5" cy="599.5" r="2.5" fill="#EAE0FF" fill-opacity="0.5"/>
<circle cx="1242.5" cy="599.5" r="2.5" fill="#EAE0FF" fill-opacity="0.5"/>
<circle cx="1249.5" cy="599.5" r="2.5" fill="#EAE0FF" fill-opacity="0.5"/>
<circle cx="1228.5" cy="606.5" r="2.5" fill="#EAE0FF" fill-opacity="0.5"/>
<circle cx="1235.5" cy="606.5" r="2.5" fill="#EAE0FF" fill-opacity="0.5"/>
<circle cx="1242.5" cy="606.5" r="2.5" fill="#EAE0FF" fill-opacity="0.5"/>
<circle cx="1249.5" cy="606.5" r="2.5" fill="#EAE0FF" fill-opacity="0.5"/>
<circle cx="1228.5" cy="613.5" r="2.5" fill="#EAE0FF" fill-opacity="0.5"/>
<circle cx="1235.5" cy="613.5" r="2.5" fill="#EAE0FF" fill-opacity="0.5"/>
<circle cx="1242.5" cy="613.5" r="2.5" fill="#EAE0FF" fill-opacity="0.5"/>
<circle cx="1249.5" cy="613.5" r="2.5" fill="#EAE0FF" fill-opacity="0.5"/>
<circle cx="1228.5" cy="620.5" r="2.5" fill="#EAE0FF" fill-opacity="0.5"/>
<circle cx="1235.5" cy="620.5" r="2.5" fill="#EAE0FF" fill-opacity="0.5"/>
<circle cx="1242.5" cy="620.5" r="2.5" fill="#EAE0FF" fill-opacity="0.5"/>
<circle cx="1249.5" cy="620.5" r="2.5" fill="#EAE0FF" fill-opacity="0.5"/>
<circle cx="1228.5" cy="627.5" r="2.5" fill="#EAE0FF" fill-opacity="0.5"/>
<circle cx="1235.5" cy="627.5" r="2.5" fill="#EAE0FF" fill-opacity="0.5"/>
<circle cx="1242.5" cy="627.5" r="2.5" fill="#EAE0FF" fill-opacity="0.5"/>
<circle cx="1249.5" cy="627.5" r="2.5" fill="#EAE0FF" fill-opacity="0.5"/>
<circle cx="1200.5" cy="606.5" r="2.5" fill="#EAE0FF" fill-opacity="0.5"/>
<circle cx="1207.5" cy="606.5" r="2.5" fill="#EAE0FF" fill-opacity="0.5"/>
<circle cx="1214.5" cy="606.5" r="2.5" fill="#EAE0FF" fill-opacity="0.5"/>
<circle cx="1221.5" cy="606.5" r="2.5" fill="#EAE0FF" fill-opacity="0.5"/>
<circle cx="1200.5" cy="613.5" r="2.5" fill="#EAE0FF" fill-opacity="0.5"/>
<circle cx="1207.5" cy="613.5" r="2.5" fill="#EAE0FF" fill-opacity="0.5"/>
<circle cx="1214.5" cy="613.5" r="2.5" fill="#EAE0FF" fill-opacity="0.5"/>
<circle cx="1221.5" cy="613.5" r="2.5" fill="#EAE0FF" fill-opacity="0.5"/>
<circle cx="1200.5" cy="620.5" r="2.5" fill="#EAE0FF" fill-opacity="0.5"/>
<circle cx="1207.5" cy="620.5" r="2.5" fill="#EAE0FF" fill-opacity="0.5"/>
<circle cx="1214.5" cy="620.5" r="2.5" fill="#EAE0FF" fill-opacity="0.5"/>
<circle cx="1221.5" cy="620.5" r="2.5" fill="#EAE0FF" fill-opacity="0.5"/>
<circle cx="1200.5" cy="627.5" r="2.5" fill="#EAE0FF" fill-opacity="0.5"/>
<circle cx="1207.5" cy="627.5" r="2.5" fill="#EAE0FF" fill-opacity="0.5"/>
<circle cx="1214.5" cy="627.5" r="2.5" fill="#EAE0FF" fill-opacity="0.5"/>
<circle cx="1221.5" cy="627.5" r="2.5" fill="#EAE0FF" fill-opacity="0.5"/>
<circle cx="1144.5" cy="578.5" r="2.5" fill="#EAE0FF" fill-opacity="0.5"/>
<circle cx="1151.5" cy="578.5" r="2.5" fill="#EAE0FF" fill-opacity="0.5"/>
<circle cx="1158.5" cy="578.5" r="2.5" fill="#EAE0FF" fill-opacity="0.5"/>
<circle cx="1165.5" cy="578.5" r="2.5" fill="#EAE0FF" fill-opacity="0.5"/>
<circle cx="1144.5" cy="585.5" r="2.5" fill="#EAE0FF" fill-opacity="0.5"/>
<circle cx="1151.5" cy="585.5" r="2.5" fill="#EAE0FF" fill-opacity="0.5"/>
<circle cx="1158.5" cy="585.5" r="2.5" fill="#EAE0FF" fill-opacity="0.5"/>
<circle cx="1165.5" cy="585.5" r="2.5" fill="#EAE0FF" fill-opacity="0.5"/>
<circle cx="1144.5" cy="592.5" r="2.5" fill="#EAE0FF" fill-opacity="0.5"/>
<circle cx="1151.5" cy="592.5" r="2.5" fill="#EAE0FF" fill-opacity="0.5"/>
<circle cx="1158.5" cy="592.5" r="2.5" fill="#EAE0FF" fill-opacity="0.5"/>
<circle cx="1165.5" cy="592.5" r="2.5" fill="#EAE0FF" fill-opacity="0.5"/>
<circle cx="1144.5" cy="599.5" r="2.5" fill="#EAE0FF" fill-opacity="0.5"/>
<circle cx="1151.5" cy="599.5" r="2.5" fill="#EAE0FF" fill-opacity="0.5"/>
<circle cx="1158.5" cy="599.5" r="2.5" fill="#EAE0FF" fill-opacity="0.5"/>
<circle cx="1165.5" cy="599.5" r="2.5" fill="#EAE0FF" fill-opacity="0.5"/>
<circle cx="1172.5" cy="578.5" r="2.5" fill="#EAE0FF" fill-opacity="0.5"/>
<circle cx="1179.5" cy="578.5" r="2.5" fill="#EAE0FF" fill-opacity="0.5"/>
<circle cx="1186.5" cy="578.5" r="2.5" fill="#EAE0FF" fill-opacity="0.5"/>
<circle cx="1193.5" cy="578.5" r="2.5" fill="#EAE0FF" fill-opacity="0.5"/>
<circle cx="1172.5" cy="585.5" r="2.5" fill="#EAE0FF" fill-opacity="0.5"/>
<circle cx="1179.5" cy="585.5" r="2.5" fill="#EAE0FF" fill-opacity="0.5"/>
<circle cx="1186.5" cy="585.5" r="2.5" fill="#EAE0FF" fill-opacity="0.5"/>
<circle cx="1193.5" cy="585.5" r="2.5" fill="#EAE0FF" fill-opacity="0.5"/>
<circle cx="1172.5" cy="592.5" r="2.5" fill="#EAE0FF" fill-opacity="0.5"/>
<circle cx="1179.5" cy="592.5" r="2.5" fill="#EAE0FF" fill-opacity="0.5"/>
<circle cx="1186.5" cy="592.5" r="2.5" fill="#EAE0FF" fill-opacity="0.5"/>
<circle cx="1193.5" cy="592.5" r="2.5" fill="#EAE0FF" fill-opacity="0.5"/>
<circle cx="1172.5" cy="599.5" r="2.5" fill="#EAE0FF" fill-opacity="0.5"/>
<circle cx="1179.5" cy="599.5" r="2.5" fill="#EAE0FF" fill-opacity="0.5"/>
<circle cx="1186.5" cy="599.5" r="2.5" fill="#EAE0FF" fill-opacity="0.5"/>
<circle cx="1193.5" cy="599.5" r="2.5" fill="#EAE0FF" fill-opacity="0.5"/>
<circle cx="1172.5" cy="606.5" r="2.5" fill="#EAE0FF" fill-opacity="0.5"/>
<circle cx="1179.5" cy="606.5" r="2.5" fill="#EAE0FF" fill-opacity="0.5"/>
<circle cx="1186.5" cy="606.5" r="2.5" fill="#EAE0FF" fill-opacity="0.5"/>
<circle cx="1193.5" cy="606.5" r="2.5" fill="#EAE0FF" fill-opacity="0.5"/>
<circle cx="1172.5" cy="613.5" r="2.5" fill="#EAE0FF" fill-opacity="0.5"/>
<circle cx="1179.5" cy="613.5" r="2.5" fill="#EAE0FF" fill-opacity="0.5"/>
<circle cx="1186.5" cy="613.5" r="2.5" fill="#EAE0FF" fill-opacity="0.5"/>
<circle cx="1193.5" cy="613.5" r="2.5" fill="#EAE0FF" fill-opacity="0.5"/>
<circle cx="1172.5" cy="620.5" r="2.5" fill="#EAE0FF" fill-opacity="0.5"/>
<circle cx="1179.5" cy="620.5" r="2.5" fill="#EAE0FF" fill-opacity="0.5"/>
<circle cx="1186.5" cy="620.5" r="2.5" fill="#EAE0FF" fill-opacity="0.5"/>
<circle cx="1193.5" cy="620.5" r="2.5" fill="#EAE0FF" fill-opacity="0.5"/>
<circle cx="1172.5" cy="627.5" r="2.5" fill="#EAE0FF" fill-opacity="0.5"/>
<circle cx="1179.5" cy="627.5" r="2.5" fill="#EAE0FF" fill-opacity="0.5"/>
<circle cx="1186.5" cy="627.5" r="2.5" fill="#EAE0FF" fill-opacity="0.5"/>
<circle cx="1193.5" cy="627.5" r="2.5" fill="#EAE0FF" fill-opacity="0.5"/>
<circle cx="1144.5" cy="606.5" r="2.5" fill="#EAE0FF" fill-opacity="0.5"/>
<circle cx="1151.5" cy="606.5" r="2.5" fill="#EAE0FF" fill-opacity="0.5"/>
<circle cx="1158.5" cy="606.5" r="2.5" fill="#EAE0FF" fill-opacity="0.5"/>
<circle cx="1165.5" cy="606.5" r="2.5" fill="#EAE0FF" fill-opacity="0.5"/>
<circle cx="1144.5" cy="613.5" r="2.5" fill="#EAE0FF" fill-opacity="0.5"/>
<circle cx="1151.5" cy="613.5" r="2.5" fill="#EAE0FF" fill-opacity="0.5"/>
<circle cx="1158.5" cy="613.5" r="2.5" fill="#EAE0FF" fill-opacity="0.5"/>
<circle cx="1165.5" cy="613.5" r="2.5" fill="#EAE0FF" fill-opacity="0.5"/>
<circle cx="1144.5" cy="620.5" r="2.5" fill="#EAE0FF" fill-opacity="0.5"/>
<circle cx="1151.5" cy="620.5" r="2.5" fill="#EAE0FF" fill-opacity="0.5"/>
<circle cx="1158.5" cy="620.5" r="2.5" fill="#EAE0FF" fill-opacity="0.5"/>
<circle cx="1165.5" cy="620.5" r="2.5" fill="#EAE0FF" fill-opacity="0.5"/>
<circle cx="1144.5" cy="627.5" r="2.5" fill="#EAE0FF" fill-opacity="0.5"/>
<circle cx="1151.5" cy="627.5" r="2.5" fill="#EAE0FF" fill-opacity="0.5"/>
<circle cx="1158.5" cy="627.5" r="2.5" fill="#EAE0FF" fill-opacity="0.5"/>
<circle cx="1165.5" cy="627.5" r="2.5" fill="#EAE0FF" fill-opacity="0.5"/>
<circle cx="1172.5" cy="494.5" r="2.5" fill="#EAE0FF" fill-opacity="0.5"/>
<circle cx="1179.5" cy="494.5" r="2.5" fill="#EAE0FF" fill-opacity="0.5"/>
<circle cx="1186.5" cy="494.5" r="2.5" fill="#EAE0FF" fill-opacity="0.5"/>
<circle cx="1193.5" cy="494.5" r="2.5" fill="#EAE0FF" fill-opacity="0.5"/>
<circle cx="1172.5" cy="501.5" r="2.5" fill="#EAE0FF" fill-opacity="0.5"/>
<circle cx="1179.5" cy="501.5" r="2.5" fill="#EAE0FF" fill-opacity="0.5"/>
<circle cx="1186.5" cy="501.5" r="2.5" fill="#EAE0FF" fill-opacity="0.5"/>
<circle cx="1193.5" cy="501.5" r="2.5" fill="#EAE0FF" fill-opacity="0.5"/>
<circle cx="1172.5" cy="508.5" r="2.5" fill="#EAE0FF" fill-opacity="0.5"/>
<circle cx="1179.5" cy="508.5" r="2.5" fill="#EAE0FF" fill-opacity="0.5"/>
<circle cx="1186.5" cy="508.5" r="2.5" fill="#EAE0FF" fill-opacity="0.5"/>
<circle cx="1193.5" cy="508.5" r="2.5" fill="#EAE0FF" fill-opacity="0.5"/>
<circle cx="1172.5" cy="515.5" r="2.5" fill="#EAE0FF" fill-opacity="0.5"/>
<circle cx="1179.5" cy="515.5" r="2.5" fill="#EAE0FF" fill-opacity="0.5"/>
<circle cx="1186.5" cy="515.5" r="2.5" fill="#EAE0FF" fill-opacity="0.5"/>
<circle cx="1193.5" cy="515.5" r="2.5" fill="#EAE0FF" fill-opacity="0.5"/>
<circle cx="1200.5" cy="494.5" r="2.5" fill="#EAE0FF" fill-opacity="0.5"/>
<circle cx="1207.5" cy="494.5" r="2.5" fill="#EAE0FF" fill-opacity="0.5"/>
<circle cx="1214.5" cy="494.5" r="2.5" fill="#EAE0FF" fill-opacity="0.5"/>
<circle cx="1221.5" cy="494.5" r="2.5" fill="#EAE0FF" fill-opacity="0.5"/>
<circle cx="1200.5" cy="501.5" r="2.5" fill="#EAE0FF" fill-opacity="0.5"/>
<circle cx="1207.5" cy="501.5" r="2.5" fill="#EAE0FF" fill-opacity="0.5"/>
<circle cx="1214.5" cy="501.5" r="2.5" fill="#EAE0FF" fill-opacity="0.5"/>
<circle cx="1221.5" cy="501.5" r="2.5" fill="#EAE0FF" fill-opacity="0.5"/>
<circle cx="1200.5" cy="508.5" r="2.5" fill="#EAE0FF" fill-opacity="0.5"/>
<circle cx="1207.5" cy="508.5" r="2.5" fill="#EAE0FF" fill-opacity="0.5"/>
<circle cx="1214.5" cy="508.5" r="2.5" fill="#EAE0FF" fill-opacity="0.5"/>
<circle cx="1221.5" cy="508.5" r="2.5" fill="#EAE0FF" fill-opacity="0.5"/>
<circle cx="1200.5" cy="515.5" r="2.5" fill="#EAE0FF" fill-opacity="0.5"/>
<circle cx="1207.5" cy="515.5" r="2.5" fill="#EAE0FF" fill-opacity="0.5"/>
<circle cx="1214.5" cy="515.5" r="2.5" fill="#EAE0FF" fill-opacity="0.5"/>
<circle cx="1221.5" cy="515.5" r="2.5" fill="#EAE0FF" fill-opacity="0.5"/>
<circle cx="1200.5" cy="522.5" r="2.5" fill="#EAE0FF" fill-opacity="0.5"/>
<circle cx="1207.5" cy="522.5" r="2.5" fill="#EAE0FF" fill-opacity="0.5"/>
<circle cx="1214.5" cy="522.5" r="2.5" fill="#EAE0FF" fill-opacity="0.5"/>
<circle cx="1221.5" cy="522.5" r="2.5" fill="#EAE0FF" fill-opacity="0.5"/>
<circle cx="1200.5" cy="529.5" r="2.5" fill="#EAE0FF" fill-opacity="0.5"/>
<circle cx="1207.5" cy="529.5" r="2.5" fill="#EAE0FF" fill-opacity="0.5"/>
<circle cx="1214.5" cy="529.5" r="2.5" fill="#EAE0FF" fill-opacity="0.5"/>
<circle cx="1221.5" cy="529.5" r="2.5" fill="#EAE0FF" fill-opacity="0.5"/>
<circle cx="1200.5" cy="536.5" r="2.5" fill="#EAE0FF" fill-opacity="0.5"/>
<circle cx="1207.5" cy="536.5" r="2.5" fill="#EAE0FF" fill-opacity="0.5"/>
<circle cx="1214.5" cy="536.5" r="2.5" fill="#EAE0FF" fill-opacity="0.5"/>
<circle cx="1221.5" cy="536.5" r="2.5" fill="#EAE0FF" fill-opacity="0.5"/>
<circle cx="1200.5" cy="543.5" r="2.5" fill="#EAE0FF" fill-opacity="0.5"/>
<circle cx="1207.5" cy="543.5" r="2.5" fill="#EAE0FF" fill-opacity="0.5"/>
<circle cx="1214.5" cy="543.5" r="2.5" fill="#EAE0FF" fill-opacity="0.5"/>
<circle cx="1221.5" cy="543.5" r="2.5" fill="#EAE0FF" fill-opacity="0.5"/>
<circle cx="1172.5" cy="522.5" r="2.5" fill="#EAE0FF" fill-opacity="0.5"/>
<circle cx="1179.5" cy="522.5" r="2.5" fill="#EAE0FF" fill-opacity="0.5"/>
<circle cx="1186.5" cy="522.5" r="2.5" fill="#EAE0FF" fill-opacity="0.5"/>
<circle cx="1193.5" cy="522.5" r="2.5" fill="#EAE0FF" fill-opacity="0.5"/>
<circle cx="1172.5" cy="529.5" r="2.5" fill="#EAE0FF" fill-opacity="0.5"/>
<circle cx="1179.5" cy="529.5" r="2.5" fill="#EAE0FF" fill-opacity="0.5"/>
<circle cx="1186.5" cy="529.5" r="2.5" fill="#EAE0FF" fill-opacity="0.5"/>
<circle cx="1193.5" cy="529.5" r="2.5" fill="#EAE0FF" fill-opacity="0.5"/>
<circle cx="1172.5" cy="536.5" r="2.5" fill="#EAE0FF" fill-opacity="0.5"/>
<circle cx="1179.5" cy="536.5" r="2.5" fill="#EAE0FF" fill-opacity="0.5"/>
<circle cx="1186.5" cy="536.5" r="2.5" fill="#EAE0FF" fill-opacity="0.5"/>
<circle cx="1193.5" cy="536.5" r="2.5" fill="#EAE0FF" fill-opacity="0.5"/>
<circle cx="1172.5" cy="543.5" r="2.5" fill="#EAE0FF" fill-opacity="0.5"/>
<circle cx="1179.5" cy="543.5" r="2.5" fill="#EAE0FF" fill-opacity="0.5"/>
<circle cx="1186.5" cy="543.5" r="2.5" fill="#EAE0FF" fill-opacity="0.5"/>
<circle cx="1193.5" cy="543.5" r="2.5" fill="#EAE0FF" fill-opacity="0.5"/>
<circle cx="1228.5" cy="494.5" r="2.5" fill="#EAE0FF" fill-opacity="0.5"/>
<circle cx="1235.5" cy="494.5" r="2.5" fill="#EAE0FF" fill-opacity="0.5"/>
<circle cx="1242.5" cy="494.5" r="2.5" fill="#EAE0FF" fill-opacity="0.5"/>
<circle cx="1249.5" cy="494.5" r="2.5" fill="#EAE0FF" fill-opacity="0.5"/>
<circle cx="1228.5" cy="501.5" r="2.5" fill="#EAE0FF" fill-opacity="0.5"/>
<circle cx="1235.5" cy="501.5" r="2.5" fill="#EAE0FF" fill-opacity="0.5"/>
<circle cx="1242.5" cy="501.5" r="2.5" fill="#EAE0FF" fill-opacity="0.5"/>
<circle cx="1249.5" cy="501.5" r="2.5" fill="#EAE0FF" fill-opacity="0.5"/>
<circle cx="1228.5" cy="508.5" r="2.5" fill="#EAE0FF" fill-opacity="0.5"/>
<circle cx="1235.5" cy="508.5" r="2.5" fill="#EAE0FF" fill-opacity="0.5"/>
<circle cx="1242.5" cy="508.5" r="2.5" fill="#EAE0FF" fill-opacity="0.5"/>
<circle cx="1249.5" cy="508.5" r="2.5" fill="#EAE0FF" fill-opacity="0.5"/>
<circle cx="1228.5" cy="515.5" r="2.5" fill="#EAE0FF" fill-opacity="0.5"/>
<circle cx="1235.5" cy="515.5" r="2.5" fill="#EAE0FF" fill-opacity="0.5"/>
<circle cx="1242.5" cy="515.5" r="2.5" fill="#EAE0FF" fill-opacity="0.5"/>
<circle cx="1249.5" cy="515.5" r="2.5" fill="#EAE0FF" fill-opacity="0.5"/>
<circle cx="1256.5" cy="494.5" r="2.5" fill="#EAE0FF" fill-opacity="0.5"/>
<circle cx="1263.5" cy="494.5" r="2.5" fill="#EAE0FF" fill-opacity="0.5"/>
<circle cx="1270.5" cy="494.5" r="2.5" fill="#EAE0FF" fill-opacity="0.5"/>
<circle cx="1277.5" cy="494.5" r="2.5" fill="#EAE0FF" fill-opacity="0.5"/>
<circle cx="1256.5" cy="501.5" r="2.5" fill="#EAE0FF" fill-opacity="0.5"/>
<circle cx="1263.5" cy="501.5" r="2.5" fill="#EAE0FF" fill-opacity="0.5"/>
<circle cx="1270.5" cy="501.5" r="2.5" fill="#EAE0FF" fill-opacity="0.5"/>
<circle cx="1277.5" cy="501.5" r="2.5" fill="#EAE0FF" fill-opacity="0.5"/>
<circle cx="1256.5" cy="508.5" r="2.5" fill="#EAE0FF" fill-opacity="0.5"/>
<circle cx="1263.5" cy="508.5" r="2.5" fill="#EAE0FF" fill-opacity="0.5"/>
<circle cx="1270.5" cy="508.5" r="2.5" fill="#EAE0FF" fill-opacity="0.5"/>
<circle cx="1277.5" cy="508.5" r="2.5" fill="#EAE0FF" fill-opacity="0.5"/>
<circle cx="1256.5" cy="515.5" r="2.5" fill="#EAE0FF" fill-opacity="0.5"/>
<circle cx="1263.5" cy="515.5" r="2.5" fill="#EAE0FF" fill-opacity="0.5"/>
<circle cx="1270.5" cy="515.5" r="2.5" fill="#EAE0FF" fill-opacity="0.5"/>
<circle cx="1277.5" cy="515.5" r="2.5" fill="#EAE0FF" fill-opacity="0.5"/>
<circle cx="1256.5" cy="522.5" r="2.5" fill="#EAE0FF" fill-opacity="0.5"/>
<circle cx="1263.5" cy="522.5" r="2.5" fill="#EAE0FF" fill-opacity="0.5"/>
<circle cx="1270.5" cy="522.5" r="2.5" fill="#EAE0FF" fill-opacity="0.5"/>
<circle cx="1277.5" cy="522.5" r="2.5" fill="#EAE0FF" fill-opacity="0.5"/>
<circle cx="1256.5" cy="529.5" r="2.5" fill="#EAE0FF" fill-opacity="0.5"/>
<circle cx="1263.5" cy="529.5" r="2.5" fill="#EAE0FF" fill-opacity="0.5"/>
<circle cx="1270.5" cy="529.5" r="2.5" fill="#EAE0FF" fill-opacity="0.5"/>
<circle cx="1277.5" cy="529.5" r="2.5" fill="#EAE0FF" fill-opacity="0.5"/>
<circle cx="1256.5" cy="536.5" r="2.5" fill="#EAE0FF" fill-opacity="0.5"/>
<circle cx="1263.5" cy="536.5" r="2.5" fill="#EAE0FF" fill-opacity="0.5"/>
<circle cx="1270.5" cy="536.5" r="2.5" fill="#EAE0FF" fill-opacity="0.5"/>
<circle cx="1277.5" cy="536.5" r="2.5" fill="#EAE0FF" fill-opacity="0.5"/>
<circle cx="1256.5" cy="543.5" r="2.5" fill="#EAE0FF" fill-opacity="0.5"/>
<circle cx="1263.5" cy="543.5" r="2.5" fill="#EAE0FF" fill-opacity="0.5"/>
<circle cx="1270.5" cy="543.5" r="2.5" fill="#EAE0FF" fill-opacity="0.5"/>
<circle cx="1277.5" cy="543.5" r="2.5" fill="#EAE0FF" fill-opacity="0.5"/>
<circle cx="1228.5" cy="522.5" r="2.5" fill="#EAE0FF" fill-opacity="0.5"/>
<circle cx="1235.5" cy="522.5" r="2.5" fill="#EAE0FF" fill-opacity="0.5"/>
<circle cx="1242.5" cy="522.5" r="2.5" fill="#EAE0FF" fill-opacity="0.5"/>
<circle cx="1249.5" cy="522.5" r="2.5" fill="#EAE0FF" fill-opacity="0.5"/>
<circle cx="1228.5" cy="529.5" r="2.5" fill="#EAE0FF" fill-opacity="0.5"/>
<circle cx="1235.5" cy="529.5" r="2.5" fill="#EAE0FF" fill-opacity="0.5"/>
<circle cx="1242.5" cy="529.5" r="2.5" fill="#EAE0FF" fill-opacity="0.5"/>
<circle cx="1249.5" cy="529.5" r="2.5" fill="#EAE0FF" fill-opacity="0.5"/>
<circle cx="1228.5" cy="536.5" r="2.5" fill="#EAE0FF" fill-opacity="0.5"/>
<circle cx="1235.5" cy="536.5" r="2.5" fill="#EAE0FF" fill-opacity="0.5"/>
<circle cx="1242.5" cy="536.5" r="2.5" fill="#EAE0FF" fill-opacity="0.5"/>
<circle cx="1249.5" cy="536.5" r="2.5" fill="#EAE0FF" fill-opacity="0.5"/>
<circle cx="1228.5" cy="543.5" r="2.5" fill="#EAE0FF" fill-opacity="0.5"/>
<circle cx="1235.5" cy="543.5" r="2.5" fill="#EAE0FF" fill-opacity="0.5"/>
<circle cx="1242.5" cy="543.5" r="2.5" fill="#EAE0FF" fill-opacity="0.5"/>
<circle cx="1249.5" cy="543.5" r="2.5" fill="#EAE0FF" fill-opacity="0.5"/>
<circle cx="1228.5" cy="550.5" r="2.5" fill="#EAE0FF" fill-opacity="0.5"/>
<circle cx="1235.5" cy="550.5" r="2.5" fill="#EAE0FF" fill-opacity="0.5"/>
<circle cx="1242.5" cy="550.5" r="2.5" fill="#EAE0FF" fill-opacity="0.5"/>
<circle cx="1249.5" cy="550.5" r="2.5" fill="#EAE0FF" fill-opacity="0.5"/>
<circle cx="1228.5" cy="557.5" r="2.5" fill="#EAE0FF" fill-opacity="0.5"/>
<circle cx="1235.5" cy="557.5" r="2.5" fill="#EAE0FF" fill-opacity="0.5"/>
<circle cx="1242.5" cy="557.5" r="2.5" fill="#EAE0FF" fill-opacity="0.5"/>
<circle cx="1249.5" cy="557.5" r="2.5" fill="#EAE0FF" fill-opacity="0.5"/>
<circle cx="1228.5" cy="564.5" r="2.5" fill="#EAE0FF" fill-opacity="0.5"/>
<circle cx="1235.5" cy="564.5" r="2.5" fill="#EAE0FF" fill-opacity="0.5"/>
<circle cx="1242.5" cy="564.5" r="2.5" fill="#EAE0FF" fill-opacity="0.5"/>
<circle cx="1249.5" cy="564.5" r="2.5" fill="#EAE0FF" fill-opacity="0.5"/>
<circle cx="1228.5" cy="571.5" r="2.5" fill="#EAE0FF" fill-opacity="0.5"/>
<circle cx="1235.5" cy="571.5" r="2.5" fill="#EAE0FF" fill-opacity="0.5"/>
<circle cx="1242.5" cy="571.5" r="2.5" fill="#EAE0FF" fill-opacity="0.5"/>
<circle cx="1249.5" cy="571.5" r="2.5" fill="#EAE0FF" fill-opacity="0.5"/>
<circle cx="1256.5" cy="550.5" r="2.5" fill="#EAE0FF" fill-opacity="0.5"/>
<circle cx="1263.5" cy="550.5" r="2.5" fill="#EAE0FF" fill-opacity="0.5"/>
<circle cx="1270.5" cy="550.5" r="2.5" fill="#EAE0FF" fill-opacity="0.5"/>
<circle cx="1277.5" cy="550.5" r="2.5" fill="#EAE0FF" fill-opacity="0.5"/>
<circle cx="1256.5" cy="557.5" r="2.5" fill="#EAE0FF" fill-opacity="0.5"/>
<circle cx="1263.5" cy="557.5" r="2.5" fill="#EAE0FF" fill-opacity="0.5"/>
<circle cx="1270.5" cy="557.5" r="2.5" fill="#EAE0FF" fill-opacity="0.5"/>
<circle cx="1277.5" cy="557.5" r="2.5" fill="#EAE0FF" fill-opacity="0.5"/>
<circle cx="1256.5" cy="564.5" r="2.5" fill="#EAE0FF" fill-opacity="0.5"/>
<circle cx="1263.5" cy="564.5" r="2.5" fill="#EAE0FF" fill-opacity="0.5"/>
<circle cx="1270.5" cy="564.5" r="2.5" fill="#EAE0FF" fill-opacity="0.5"/>
<circle cx="1277.5" cy="564.5" r="2.5" fill="#EAE0FF" fill-opacity="0.5"/>
<circle cx="1256.5" cy="571.5" r="2.5" fill="#EAE0FF" fill-opacity="0.5"/>
<circle cx="1263.5" cy="571.5" r="2.5" fill="#EAE0FF" fill-opacity="0.5"/>
<circle cx="1270.5" cy="571.5" r="2.5" fill="#EAE0FF" fill-opacity="0.5"/>
<circle cx="1277.5" cy="571.5" r="2.5" fill="#EAE0FF" fill-opacity="0.5"/>
<circle cx="1256.5" cy="578.5" r="2.5" fill="#EAE0FF" fill-opacity="0.5"/>
<circle cx="1263.5" cy="578.5" r="2.5" fill="#EAE0FF" fill-opacity="0.5"/>
<circle cx="1270.5" cy="578.5" r="2.5" fill="#EAE0FF" fill-opacity="0.5"/>
<circle cx="1277.5" cy="578.5" r="2.5" fill="#EAE0FF" fill-opacity="0.5"/>
<circle cx="1256.5" cy="585.5" r="2.5" fill="#EAE0FF" fill-opacity="0.5"/>
<circle cx="1263.5" cy="585.5" r="2.5" fill="#EAE0FF" fill-opacity="0.5"/>
<circle cx="1270.5" cy="585.5" r="2.5" fill="#EAE0FF" fill-opacity="0.5"/>
<circle cx="1277.5" cy="585.5" r="2.5" fill="#EAE0FF" fill-opacity="0.5"/>
<circle cx="1256.5" cy="592.5" r="2.5" fill="#EAE0FF" fill-opacity="0.5"/>
<circle cx="1263.5" cy="592.5" r="2.5" fill="#EAE0FF" fill-opacity="0.5"/>
<circle cx="1270.5" cy="592.5" r="2.5" fill="#EAE0FF" fill-opacity="0.5"/>
<circle cx="1277.5" cy="592.5" r="2.5" fill="#EAE0FF" fill-opacity="0.5"/>
<circle cx="1256.5" cy="599.5" r="2.5" fill="#EAE0FF" fill-opacity="0.5"/>
<circle cx="1263.5" cy="599.5" r="2.5" fill="#EAE0FF" fill-opacity="0.5"/>
<circle cx="1270.5" cy="599.5" r="2.5" fill="#EAE0FF" fill-opacity="0.5"/>
<circle cx="1277.5" cy="599.5" r="2.5" fill="#EAE0FF" fill-opacity="0.5"/>
<circle cx="1228.5" cy="578.5" r="2.5" fill="#EAE0FF" fill-opacity="0.5"/>
<circle cx="1235.5" cy="578.5" r="2.5" fill="#EAE0FF" fill-opacity="0.5"/>
<circle cx="1242.5" cy="578.5" r="2.5" fill="#EAE0FF" fill-opacity="0.5"/>
<circle cx="1249.5" cy="578.5" r="2.5" fill="#EAE0FF" fill-opacity="0.5"/>
<circle cx="1228.5" cy="585.5" r="2.5" fill="#EAE0FF" fill-opacity="0.5"/>
<circle cx="1235.5" cy="585.5" r="2.5" fill="#EAE0FF" fill-opacity="0.5"/>
<circle cx="1242.5" cy="585.5" r="2.5" fill="#EAE0FF" fill-opacity="0.5"/>
<circle cx="1249.5" cy="585.5" r="2.5" fill="#EAE0FF" fill-opacity="0.5"/>
<circle cx="1228.5" cy="592.5" r="2.5" fill="#EAE0FF" fill-opacity="0.5"/>
<circle cx="1235.5" cy="592.5" r="2.5" fill="#EAE0FF" fill-opacity="0.5"/>
<circle cx="1242.5" cy="592.5" r="2.5" fill="#EAE0FF" fill-opacity="0.5"/>
<circle cx="1249.5" cy="592.5" r="2.5" fill="#EAE0FF" fill-opacity="0.5"/>
<circle cx="1228.5" cy="599.5" r="2.5" fill="#EAE0FF" fill-opacity="0.5"/>
<circle cx="1235.5" cy="599.5" r="2.5" fill="#EAE0FF" fill-opacity="0.5"/>
<circle cx="1242.5" cy="599.5" r="2.5" fill="#EAE0FF" fill-opacity="0.5"/>
<circle cx="1249.5" cy="599.5" r="2.5" fill="#EAE0FF" fill-opacity="0.5"/>
<circle cx="1172.5" cy="550.5" r="2.5" fill="#EAE0FF" fill-opacity="0.5"/>
<circle cx="1179.5" cy="550.5" r="2.5" fill="#EAE0FF" fill-opacity="0.5"/>
<circle cx="1186.5" cy="550.5" r="2.5" fill="#EAE0FF" fill-opacity="0.5"/>
<circle cx="1193.5" cy="550.5" r="2.5" fill="#EAE0FF" fill-opacity="0.5"/>
<circle cx="1172.5" cy="557.5" r="2.5" fill="#EAE0FF" fill-opacity="0.5"/>
<circle cx="1179.5" cy="557.5" r="2.5" fill="#EAE0FF" fill-opacity="0.5"/>
<circle cx="1186.5" cy="557.5" r="2.5" fill="#EAE0FF" fill-opacity="0.5"/>
<circle cx="1193.5" cy="557.5" r="2.5" fill="#EAE0FF" fill-opacity="0.5"/>
<circle cx="1172.5" cy="564.5" r="2.5" fill="#EAE0FF" fill-opacity="0.5"/>
<circle cx="1179.5" cy="564.5" r="2.5" fill="#EAE0FF" fill-opacity="0.5"/>
<circle cx="1186.5" cy="564.5" r="2.5" fill="#EAE0FF" fill-opacity="0.5"/>
<circle cx="1193.5" cy="564.5" r="2.5" fill="#EAE0FF" fill-opacity="0.5"/>
<circle cx="1172.5" cy="571.5" r="2.5" fill="#EAE0FF" fill-opacity="0.5"/>
<circle cx="1179.5" cy="571.5" r="2.5" fill="#EAE0FF" fill-opacity="0.5"/>
<circle cx="1186.5" cy="571.5" r="2.5" fill="#EAE0FF" fill-opacity="0.5"/>
<circle cx="1193.5" cy="571.5" r="2.5" fill="#EAE0FF" fill-opacity="0.5"/>
<circle cx="1200.5" cy="550.5" r="2.5" fill="#EAE0FF" fill-opacity="0.5"/>
<circle cx="1207.5" cy="550.5" r="2.5" fill="#EAE0FF" fill-opacity="0.5"/>
<circle cx="1214.5" cy="550.5" r="2.5" fill="#EAE0FF" fill-opacity="0.5"/>
<circle cx="1221.5" cy="550.5" r="2.5" fill="#EAE0FF" fill-opacity="0.5"/>
<circle cx="1200.5" cy="557.5" r="2.5" fill="#EAE0FF" fill-opacity="0.5"/>
<circle cx="1207.5" cy="557.5" r="2.5" fill="#EAE0FF" fill-opacity="0.5"/>
<circle cx="1214.5" cy="557.5" r="2.5" fill="#EAE0FF" fill-opacity="0.5"/>
<circle cx="1221.5" cy="557.5" r="2.5" fill="#EAE0FF" fill-opacity="0.5"/>
<circle cx="1200.5" cy="564.5" r="2.5" fill="#EAE0FF" fill-opacity="0.5"/>
<circle cx="1207.5" cy="564.5" r="2.5" fill="#EAE0FF" fill-opacity="0.5"/>
<circle cx="1214.5" cy="564.5" r="2.5" fill="#EAE0FF" fill-opacity="0.5"/>
<circle cx="1221.5" cy="564.5" r="2.5" fill="#EAE0FF" fill-opacity="0.5"/>
<circle cx="1200.5" cy="571.5" r="2.5" fill="#EAE0FF" fill-opacity="0.5"/>
<circle cx="1207.5" cy="571.5" r="2.5" fill="#EAE0FF" fill-opacity="0.5"/>
<circle cx="1214.5" cy="571.5" r="2.5" fill="#EAE0FF" fill-opacity="0.5"/>
<circle cx="1221.5" cy="571.5" r="2.5" fill="#EAE0FF" fill-opacity="0.5"/>
<circle cx="1200.5" cy="578.5" r="2.5" fill="#EAE0FF" fill-opacity="0.5"/>
<circle cx="1207.5" cy="578.5" r="2.5" fill="#EAE0FF" fill-opacity="0.5"/>
<circle cx="1214.5" cy="578.5" r="2.5" fill="#EAE0FF" fill-opacity="0.5"/>
<circle cx="1221.5" cy="578.5" r="2.5" fill="#EAE0FF" fill-opacity="0.5"/>
<circle cx="1200.5" cy="585.5" r="2.5" fill="#EAE0FF" fill-opacity="0.5"/>
<circle cx="1207.5" cy="585.5" r="2.5" fill="#EAE0FF" fill-opacity="0.5"/>
<circle cx="1214.5" cy="585.5" r="2.5" fill="#EAE0FF" fill-opacity="0.5"/>
<circle cx="1221.5" cy="585.5" r="2.5" fill="#EAE0FF" fill-opacity="0.5"/>
<circle cx="1200.5" cy="592.5" r="2.5" fill="#EAE0FF" fill-opacity="0.5"/>
<circle cx="1207.5" cy="592.5" r="2.5" fill="#EAE0FF" fill-opacity="0.5"/>
<circle cx="1214.5" cy="592.5" r="2.5" fill="#EAE0FF" fill-opacity="0.5"/>
<circle cx="1221.5" cy="592.5" r="2.5" fill="#EAE0FF" fill-opacity="0.5"/>
<circle cx="1200.5" cy="599.5" r="2.5" fill="#EAE0FF" fill-opacity="0.5"/>
<circle cx="1207.5" cy="599.5" r="2.5" fill="#EAE0FF" fill-opacity="0.5"/>
<circle cx="1214.5" cy="599.5" r="2.5" fill="#EAE0FF" fill-opacity="0.5"/>
<circle cx="1221.5" cy="599.5" r="2.5" fill="#EAE0FF" fill-opacity="0.5"/>
<circle cx="1172.5" cy="578.5" r="2.5" fill="#EAE0FF" fill-opacity="0.5"/>
<circle cx="1179.5" cy="578.5" r="2.5" fill="#EAE0FF" fill-opacity="0.5"/>
<circle cx="1186.5" cy="578.5" r="2.5" fill="#EAE0FF" fill-opacity="0.5"/>
<circle cx="1193.5" cy="578.5" r="2.5" fill="#EAE0FF" fill-opacity="0.5"/>
<circle cx="1172.5" cy="585.5" r="2.5" fill="#EAE0FF" fill-opacity="0.5"/>
<circle cx="1179.5" cy="585.5" r="2.5" fill="#EAE0FF" fill-opacity="0.5"/>
<circle cx="1186.5" cy="585.5" r="2.5" fill="#EAE0FF" fill-opacity="0.5"/>
<circle cx="1193.5" cy="585.5" r="2.5" fill="#EAE0FF" fill-opacity="0.5"/>
<circle cx="1172.5" cy="592.5" r="2.5" fill="#EAE0FF" fill-opacity="0.5"/>
<circle cx="1179.5" cy="592.5" r="2.5" fill="#EAE0FF" fill-opacity="0.5"/>
<circle cx="1186.5" cy="592.5" r="2.5" fill="#EAE0FF" fill-opacity="0.5"/>
<circle cx="1193.5" cy="592.5" r="2.5" fill="#EAE0FF" fill-opacity="0.5"/>
<circle cx="1172.5" cy="599.5" r="2.5" fill="#EAE0FF" fill-opacity="0.5"/>
<circle cx="1179.5" cy="599.5" r="2.5" fill="#EAE0FF" fill-opacity="0.5"/>
<circle cx="1186.5" cy="599.5" r="2.5" fill="#EAE0FF" fill-opacity="0.5"/>
<circle cx="1193.5" cy="599.5" r="2.5" fill="#EAE0FF" fill-opacity="0.5"/>
</svg>
