<svg width="179" height="138" viewBox="0 0 179 138" fill="none" xmlns="http://www.w3.org/2000/svg">
<path d="M84.38 66.62C84.02 66.62 83.6 66.62 83.12 66.62C82.76 66.62 82.4 66.62 82.04 66.62C81.8 66.62 81.44 66.62 80.96 66.62C80.48 66.62 80.06 66.62 79.7 66.62C79.46 66.62 79.1 66.62 78.62 66.62C78.26 66.5 77.96 66.44 77.72 66.44C77.48 66.32 77.18 66.2 76.82 66.08C76.58 65.96 76.34 65.84 76.1 65.72C75.98 65.48 75.86 65.24 75.74 65C75.62 64.76 75.56 64.46 75.56 64.1C75.56 63.14 75.98 62.18 76.82 61.22C77.66 60.14 78.56 59.6 79.52 59.6C80.6 59.6 81.74 59.6 82.94 59.6C84.62 59.6 87.08 59.66 90.32 59.78C93.68 59.78 96.08 59.78 97.52 59.78C98.96 55.7 101.06 49.52 103.82 41.24C106.58 32.84 108.68 26.54 110.12 22.34C79.4 13.34 56.06 8.83999 40.1 8.83999C36.62 8.83999 33.2 9.07999 29.84 9.55999C26.48 10.04 22.88 10.94 19.04 12.26C15.32 13.46 12.26 15.38 9.86 18.02C7.58 20.54 6.44 23.66 6.44 27.38C6.44 33.02 8.96 38.84 14 44.84C19.16 50.84 24.8 55.88 30.92 59.96C37.04 63.92 42.62 67.64 47.66 71.12C52.82 74.6 55.4 76.88 55.4 77.96C55.4 78.32 55.16 78.5 54.68 78.5C52.76 78.5 48.98 77 43.34 74C37.82 71.12 32.66 68 27.86 64.64C23.18 61.16 18.68 57.2 14.36 52.76C10.04 48.32 6.68 43.34 4.28 37.82C1.76 32.18 0.5 26.36 0.5 20.36C0.5 7.03999 10.82 0.379993 31.46 0.379993C51.98 0.379993 78.74 6.13999 111.74 17.66C111.86 17.18 112.1 16.22 112.46 14.78C112.94 13.34 113.36 12.14 113.72 11.18C114.08 10.22 114.56 9.13999 115.16 7.93999C115.76 6.73999 116.48 5.83999 117.32 5.23999C118.16 4.64 119.06 4.34 120.02 4.34C122.3 4.34 124.4 5.53999 126.32 7.93999C128.24 10.34 129.2 12.68 129.2 14.96C129.2 16.16 128.84 16.76 128.12 16.76C127.28 16.76 126.2 16.22 124.88 15.14C123.56 14.06 122.78 13.52 122.54 13.52C121.58 13.52 120.68 14.3 119.84 15.86C119 17.42 118.46 18.8 118.22 20C132.62 24.92 147.26 27.38 162.14 27.38C164.66 27.38 167 27.08 169.16 26.48C171.32 25.88 173 25.28 174.2 24.68C175.4 24.08 176.12 23.78 176.36 23.78C177.92 23.78 178.7 24.32 178.7 25.4C178.7 28.4 176.42 30.56 171.86 31.88C167.3 33.2 163.1 33.86 159.26 33.86C153.14 33.86 145.88 33.02 137.48 31.34C129.2 29.66 122.3 27.56 116.78 25.04C116.18 26.96 114.38 32.12 111.38 40.52C108.38 48.8 106.16 55.22 104.72 59.78C105.56 59.78 110.12 59.9 118.4 60.14C126.68 60.26 132.32 60.32 135.32 60.32C137.48 60.32 139.22 60.62 140.54 61.22C141.98 61.7 142.7 62.3 142.7 63.02C142.7 64.34 140.6 65 136.4 65C132.92 65 126.56 65.18 117.32 65.54C108.08 65.9 103.22 66.08 102.74 66.08C100.58 73.88 97.28 82.46 92.84 91.82C88.4 101.06 83.84 108.26 79.16 113.42C103.64 125.3 123.92 131.24 140 131.24C146.12 131.24 151.7 129.5 156.74 126.02C161.78 122.66 164.3 118.04 164.3 112.16C164.3 109.4 163.34 106.64 161.42 103.88C159.5 101 158.54 99.2 158.54 98.48C158.54 96.08 159.5 94.88 161.42 94.88C163.1 94.88 164.72 96.44 166.28 99.56C167.96 102.68 168.8 106.46 168.8 110.9C168.8 119.42 165.44 126.02 158.72 130.7C152.12 135.5 144.38 137.9 135.5 137.9C129.62 137.9 122.72 136.76 114.8 134.48C107 132.2 101 130.16 96.8 128.36C92.6 126.56 86 123.56 77 119.36C75.44 118.64 74.24 118.1 73.4 117.74C62.84 127.58 49.7 132.5 33.98 132.5C27.98 132.5 22.64 131.36 17.96 129.08C13.28 126.8 10.94 122.9 10.94 117.38C10.94 111.86 13.1 107.42 17.42 104.06C21.74 100.58 26.78 98.84 32.54 98.84C42.5 98.84 56.24 102.86 73.76 110.9C79.64 103.22 86.9 88.4 95.54 66.44C94.94 66.44 93.32 66.5 90.68 66.62C88.04 66.62 85.94 66.62 84.38 66.62ZM69.62 115.76C64.46 113.36 57.68 111.14 49.28 109.1C41 107.06 34.28 106.04 29.12 106.04C21.08 106.04 17.06 108.5 17.06 113.42C17.06 116.42 18.68 119.06 21.92 121.34C25.16 123.74 28.64 125.36 32.36 126.2C36.08 127.16 39.44 127.64 42.44 127.64C52.64 127.64 61.7 123.68 69.62 115.76Z" fill="#8B41EA" fill-opacity="0.2"/>
</svg>
